<svg width="72" height="72" viewBox="0 0 72 72" fill="none" xmlns="http://www.w3.org/2000/svg">
<g filter="url(#filter0_d_604_8359)">
<path d="M36 59C50.3594 59 62 47.3594 62 33C62 18.6406 50.3594 7 36 7C21.6406 7 10 18.6406 10 33C10 47.3594 21.6406 59 36 59Z" fill="url(#paint0_linear_604_8359)"/>
</g>
<rect x="10" y="7" width="52" height="52" rx="20" fill="url(#paint1_linear_604_8359)"/>
<path d="M48.4552 44.9668L46.8993 34.735C46.616 32.8723 45.8498 31.1275 44.6945 29.6675C42.347 30.2323 39.9572 30.5584 37.5609 30.6457L38.5212 31.3301C38.9166 31.6119 39.0086 32.1606 38.727 32.5559C38.5555 32.7965 38.285 32.9248 38.0104 32.9248C37.8339 32.9248 37.6558 32.8719 37.5011 32.7616L36.2461 31.8672L34.991 32.7616C34.8363 32.8719 34.6581 32.9248 34.4817 32.9248C34.207 32.9248 33.9366 32.7966 33.7651 32.5559C33.4834 32.1606 33.5755 31.6119 33.9709 31.3301L34.9312 30.6457C32.5349 30.5584 30.1452 30.2323 27.7977 29.6675C26.6423 31.1275 25.8761 32.8723 25.5928 34.735L24.0369 44.9668C23.9212 45.7274 24.1425 46.4982 24.644 47.0818C25.1455 47.6653 25.8743 47.9999 26.6436 47.9999H28.9721L29.4748 43.8049C29.5325 43.3229 29.9701 42.9792 30.452 43.0368C30.934 43.0945 31.2779 43.5321 31.2201 44.014L30.7425 47.9999H35.3671V43.9094C35.3671 43.424 35.7607 43.0305 36.2461 43.0305C36.7314 43.0305 37.125 43.424 37.125 43.9094V47.9999H41.7496L41.272 44.014C41.2143 43.5321 41.5582 43.0945 42.0401 43.0368C42.5226 42.9792 42.9595 43.3229 43.0173 43.8049L43.52 47.9999H45.8485C46.6178 47.9999 47.3466 47.6653 47.8481 47.0818C48.3496 46.4982 48.5709 45.7274 48.4552 44.9668Z" fill="url(#paint2_linear_604_8359)"/>
<path d="M47.2354 19.7508C46.6761 18.6708 45.5733 18 44.3572 18H40.2955C39.8777 18 39.5177 18.2941 39.4343 18.7035C39.1274 20.21 37.7865 21.3035 36.246 21.3035C34.7055 21.3035 33.3646 20.21 33.0577 18.7035C32.9743 18.2941 32.6143 18 32.1965 18H28.1349C26.9187 18 25.8158 18.6708 25.2566 19.7508C24.7637 20.7026 24.7729 21.8343 25.281 22.778C25.7893 23.7217 26.7291 24.3522 27.795 24.4646L28.4282 24.5314V28.01C33.5713 29.2117 38.9207 29.2117 44.0637 28.01V24.5314L44.697 24.4646C45.7629 24.3522 46.7027 23.7217 47.2109 22.778C47.7191 21.8343 47.7283 20.7026 47.2354 19.7508Z" fill="white"/>
<defs>
<filter id="filter0_d_604_8359" x="0" y="0" width="72" height="72" filterUnits="userSpaceOnUse" color-interpolation-filters="sRGB">
<feFlood flood-opacity="0" result="BackgroundImageFix"/>
<feColorMatrix in="SourceAlpha" type="matrix" values="0 0 0 0 0 0 0 0 0 0 0 0 0 0 0 0 0 0 127 0" result="hardAlpha"/>
<feOffset dy="3"/>
<feGaussianBlur stdDeviation="5"/>
<feColorMatrix type="matrix" values="0 0 0 0 0.231373 0 0 0 0 0.666667 0 0 0 0 0.952941 0 0 0 0.3 0"/>
<feBlend mode="normal" in2="BackgroundImageFix" result="effect1_dropShadow_604_8359"/>
<feBlend mode="normal" in="SourceGraphic" in2="effect1_dropShadow_604_8359" result="shape"/>
</filter>
<linearGradient id="paint0_linear_604_8359" x1="10" y1="7" x2="10" y2="59" gradientUnits="userSpaceOnUse">
<stop stop-color="#7AD0FF"/>
<stop offset="1" stop-color="#3AA9F3"/>
</linearGradient>
<linearGradient id="paint1_linear_604_8359" x1="10" y1="7" x2="10" y2="59" gradientUnits="userSpaceOnUse">
<stop stop-color="#7AD0FF"/>
<stop offset="1" stop-color="#3AA9F3"/>
</linearGradient>
<linearGradient id="paint2_linear_604_8359" x1="23.3903" y1="28.7441" x2="23.3903" y2="47.9999" gradientUnits="userSpaceOnUse">
<stop stop-color="white"/>
<stop offset="1" stop-color="white" stop-opacity="0.802448"/>
</linearGradient>
</defs>
</svg>
